<mxfile host="app.diagrams.net" modified="2024-03-08T19:27:28.739Z" agent="Mozilla/5.0 (Windows NT 10.0; Win64; x64) AppleWebKit/537.36 (KHTML, like Gecko) Chrome/121.0.0.0 Safari/537.36 OPR/107.0.0.0 (Edition Yx)" etag="xnBuizxdnVPtPJV-oW2T" version="24.0.2" type="github">
  <diagram id="R2lEEEUBdFMjLlhIrx00" name="Page-1">
    <mxGraphModel dx="433" dy="232" grid="1" gridSize="10" guides="1" tooltips="1" connect="1" arrows="1" fold="1" page="1" pageScale="1" pageWidth="850" pageHeight="1100" math="0" shadow="0" extFonts="Permanent Marker^https://fonts.googleapis.com/css?family=Permanent+Marker">
      <root>
        <mxCell id="0" />
        <mxCell id="1" parent="0" />
        <mxCell id="NbPGqInugCmnnlXN2Xtu-7" style="edgeStyle=orthogonalEdgeStyle;rounded=0;orthogonalLoop=1;jettySize=auto;html=1;exitX=0.25;exitY=0;exitDx=0;exitDy=0;entryX=0.5;entryY=1;entryDx=0;entryDy=0;" edge="1" parent="1" source="NbPGqInugCmnnlXN2Xtu-1" target="NbPGqInugCmnnlXN2Xtu-3">
          <mxGeometry relative="1" as="geometry" />
        </mxCell>
        <mxCell id="NbPGqInugCmnnlXN2Xtu-8" style="edgeStyle=orthogonalEdgeStyle;rounded=0;orthogonalLoop=1;jettySize=auto;html=1;exitX=0.75;exitY=0;exitDx=0;exitDy=0;entryX=0.5;entryY=1;entryDx=0;entryDy=0;" edge="1" parent="1" source="NbPGqInugCmnnlXN2Xtu-1" target="NbPGqInugCmnnlXN2Xtu-4">
          <mxGeometry relative="1" as="geometry" />
        </mxCell>
        <mxCell id="NbPGqInugCmnnlXN2Xtu-11" style="edgeStyle=orthogonalEdgeStyle;rounded=0;orthogonalLoop=1;jettySize=auto;html=1;exitX=1;exitY=0.25;exitDx=0;exitDy=0;entryX=0;entryY=1;entryDx=0;entryDy=0;" edge="1" parent="1" source="NbPGqInugCmnnlXN2Xtu-1" target="NbPGqInugCmnnlXN2Xtu-5">
          <mxGeometry relative="1" as="geometry" />
        </mxCell>
        <mxCell id="NbPGqInugCmnnlXN2Xtu-1" value="User" style="rounded=0;whiteSpace=wrap;html=1;" vertex="1" parent="1">
          <mxGeometry x="305" y="260" width="65" height="30" as="geometry" />
        </mxCell>
        <mxCell id="NbPGqInugCmnnlXN2Xtu-2" value="Username" style="ellipse;whiteSpace=wrap;html=1;" vertex="1" parent="1">
          <mxGeometry x="240" y="220" width="50" height="30" as="geometry" />
        </mxCell>
        <mxCell id="NbPGqInugCmnnlXN2Xtu-3" value="Password" style="ellipse;whiteSpace=wrap;html=1;" vertex="1" parent="1">
          <mxGeometry x="300" y="210" width="50" height="30" as="geometry" />
        </mxCell>
        <mxCell id="NbPGqInugCmnnlXN2Xtu-4" value="Name" style="ellipse;whiteSpace=wrap;html=1;" vertex="1" parent="1">
          <mxGeometry x="360" y="210" width="30" height="20" as="geometry" />
        </mxCell>
        <mxCell id="NbPGqInugCmnnlXN2Xtu-5" value="Surname" style="ellipse;whiteSpace=wrap;html=1;" vertex="1" parent="1">
          <mxGeometry x="400" y="230" width="50" height="30" as="geometry" />
        </mxCell>
        <mxCell id="NbPGqInugCmnnlXN2Xtu-12" style="edgeStyle=orthogonalEdgeStyle;rounded=0;orthogonalLoop=1;jettySize=auto;html=1;exitX=0;exitY=0.25;exitDx=0;exitDy=0;entryX=0.6;entryY=1;entryDx=0;entryDy=0;entryPerimeter=0;" edge="1" parent="1" source="NbPGqInugCmnnlXN2Xtu-1" target="NbPGqInugCmnnlXN2Xtu-2">
          <mxGeometry relative="1" as="geometry" />
        </mxCell>
      </root>
    </mxGraphModel>
  </diagram>
</mxfile>
